<?xml version="1.0" encoding="UTF-8"?>
<!DOCTYPE svg PUBLIC "-//W3C//DTD SVG 1.1//EN" "http://www.w3.org/Graphics/SVG/1.1/DTD/svg11.dtd">
<!-- Creator: CorelDRAW 2020 (64-Bit) -->
<svg xmlns="http://www.w3.org/2000/svg" xml:space="preserve" width="50.7998mm" height="34.3195mm" version="1.1" style="shape-rendering:geometricPrecision; text-rendering:geometricPrecision; image-rendering:optimizeQuality; fill-rule:evenodd; clip-rule:evenodd"
viewBox="0 0 322.88 218.13"
 xmlns:xlink="http://www.w3.org/1999/xlink"
 xmlns:xodm="http://www.corel.com/coreldraw/odm/2003">
 <defs>
  <style type="text/css">
   <![CDATA[
    .fil3 {fill:#323230}
    .fil4 {fill:#323230}
    .fil2 {fill:#484848}
    .fil1 {fill:#484848}
    .fil5 {fill:#B8E31D}
    .fil0 {fill:#484848;fill-rule:nonzero}
   ]]>
  </style>
 </defs>
 <g id="Capa_x0020_1">
  <metadata id="CorelCorpID_0Corel-Layer"/>
  <path class="fil0" d="M0.63 53.7l57.76 0c0.35,0 0.63,0.28 0.63,0.63l0 163.16c0,0.35 -0.28,0.63 -0.63,0.63l-57.76 0c-0.35,0 -0.63,-0.28 -0.63,-0.63l0 -163.16c0,-0.35 0.28,-0.63 0.63,-0.63zm57.13 1.27l-56.49 0 0 161.89 56.49 0 0 -161.89z"/>
  <rect class="fil1" x="0.63" y="54.33" width="57.76" height="163.16"/>
  <rect class="fil2" x="166.07" y="54.33" width="57.76" height="163.16"/>
  <path class="fil0" d="M166.07 53.7l58.4 0 0 164.44 -59.03 0 0 -164.44 0.64 0zm57.13 1.27l-56.49 0 0 161.89 56.49 0 0 -161.89z"/>
  <polygon class="fil3" points="165.43,153.85 224.47,56.39 197.42,70.83 165.43,123.64 "/>
  <polygon class="fil4" points="59.03,168.48 0.2,54.81 49.86,54.33 59.03,133.08 "/>
  <path class="fil5" d="M209.64 70.44c-34.44,35.2 -66.31,85.25 -97.43,139.67 -0.05,0.08 -0.11,0.15 -0.18,0.2 -0.28,0.2 -0.68,0.14 -0.88,-0.15l-111 -155.44c-0.09,-0.11 -0.14,-0.25 -0.14,-0.4 0,-0.35 0.28,-0.63 0.63,-0.63l57.76 0c0.19,0 0.37,0.08 0.49,0.24l52.92 65.82c8.74,-13.51 17.85,-26.08 27.23,-37.6 28.77,-35.32 59.99,-60.74 90.32,-73.29 30.42,-12.59 59.94,-12.24 85.18,4.01 2.74,1.76 5.43,3.72 8.07,5.86 0.18,0.13 0.29,0.35 0.26,0.59 -0.04,0.35 -0.36,0.6 -0.7,0.56 -41.26,-4.89 -78.17,15.44 -112.53,50.55z"/>
 </g>
</svg>
